<svg id="Layer_1" data-name="Layer 1" xmlns="http://www.w3.org/2000/svg" viewBox="0 0 176.42 18.39"><defs><style>.cls-1{fill:none;stroke:#ccfcff;stroke-linecap:round;stroke-miterlimit:10;}.cls-2{fill:#ccfcff;}</style></defs><line class="cls-1" x1="0.5" y1="17.89" x2="175.92" y2="17.89"/><path class="cls-2" d="M132.33,0H94.16a2.75,2.75,0,0,0-2.75,2.75V12.82a2.75,2.75,0,0,0,2.75,2.75h1.57a2,2,0,0,0,3.88,0h6.24a2,2,0,0,0,3.88,0H116a2,2,0,0,0,3.88,0h6.26a2,2,0,0,0,3.88,0h2.36a2.75,2.75,0,0,0,2.76-2.74h0v-10a2.75,2.75,0,0,0-2.7-2.8ZM94.16,1.11h38.17A1.68,1.68,0,0,1,134,2.77v7.77H92.5V2.77A1.68,1.68,0,0,1,94.16,1.11Z" transform="translate(0 -0.02)"/><rect class="cls-2" x="94.7" y="3.94" width="3.9" height="3.9" rx="0.35"/><rect class="cls-2" x="102.8" y="3.94" width="3.9" height="3.9" rx="0.35"/><rect class="cls-2" x="110.9" y="3.94" width="3.9" height="3.9" rx="0.35"/><rect class="cls-2" x="118.99" y="3.94" width="3.9" height="3.9" rx="0.35"/><rect class="cls-2" x="127.09" y="3.94" width="3.9" height="3.9" rx="0.35"/><path class="cls-2" d="M86.87,0H48.71A2.75,2.75,0,0,0,46,2.77V12.82a2.75,2.75,0,0,0,2.75,2.75h1.56a2,2,0,0,0,3.88,0h6.24a2,2,0,0,0,3.88,0h6.24a2,2,0,0,0,3.88,0h6.24a2,2,0,0,0,3.88,0h2.36a2.75,2.75,0,0,0,2.75-2.75v-10A2.75,2.75,0,0,0,86.92,0ZM48.71,1.11H86.87a1.66,1.66,0,0,1,1.66,1.66h0v7.77H47.05V2.77A1.66,1.66,0,0,1,48.71,1.11Z" transform="translate(0 -0.02)"/><rect class="cls-2" x="49.25" y="3.94" width="3.9" height="3.9" rx="0.35"/><rect class="cls-2" x="57.34" y="3.94" width="3.9" height="3.9" rx="0.35"/><rect class="cls-2" x="65.44" y="3.94" width="3.9" height="3.9" rx="0.35"/><rect class="cls-2" x="73.54" y="3.94" width="3.9" height="3.9" rx="0.35"/><rect class="cls-2" x="81.63" y="3.94" width="3.9" height="3.9" rx="0.35"/><path class="cls-2" d="M41.42,0H3.25A2.75,2.75,0,0,0,.5,2.77V12.82a2.75,2.75,0,0,0,2.75,2.75H4.82a2,2,0,0,0,3.88,0h6.24a2,2,0,0,0,3.88,0h6.29a2,2,0,0,0,3.88,0h6.24a2,2,0,0,0,3.88,0h2.36a2.75,2.75,0,0,0,2.75-2.75v-10A2.75,2.75,0,0,0,41.52,0ZM3.25,1.11H41.42a1.67,1.67,0,0,1,1.69,1.65h0v7.77H1.59V2.77A1.68,1.68,0,0,1,3.25,1.11Z" transform="translate(0 -0.02)"/><rect class="cls-2" x="3.79" y="3.94" width="3.9" height="3.9" rx="0.35"/><rect class="cls-2" x="11.89" y="3.94" width="3.9" height="3.9" rx="0.35"/><rect class="cls-2" x="19.98" y="3.94" width="3.9" height="3.9" rx="0.35"/><rect class="cls-2" x="28.08" y="3.94" width="3.9" height="3.9" rx="0.35"/><rect class="cls-2" x="36.18" y="3.94" width="3.9" height="3.9" rx="0.35"/><path class="cls-2" d="M175.65,11.76a13.09,13.09,0,0,0-3.54-4.88h.08L171.11,6h0L171,5.84h0a26.84,26.84,0,0,0-6.15-3.63h-.29l-.71-.28h0C157.14-.27,140.19.15,139.46.17A2.61,2.61,0,0,0,137,2.89v9.93a2.61,2.61,0,0,0,2.49,2.72h2.65a2,2,0,0,0,3.9,0h4.32a2,2,0,0,0,3.9,0h4.32a2,2,0,0,0,3.89,0h4.32a2,2,0,0,0,3.9,0h3.1a2.17,2.17,0,0,0,1.83-1.1A2.83,2.83,0,0,0,175.65,11.76ZM139.38,1.08h3.8c5.66,0,16.1.24,20.55,1.86v1.8a2.06,2.06,0,0,0,2,2.13h4.87A15.67,15.67,0,0,1,174,10.66H138V2.77A1.61,1.61,0,0,1,139.38,1.08Z" transform="translate(0 -0.02)"/></svg>