<svg id="Layer_1" data-name="Layer 1" xmlns="http://www.w3.org/2000/svg" viewBox="0 0 176.42 18.41"><defs><style>.cls-1{fill:none;stroke:#000;stroke-linecap:round;stroke-miterlimit:10;}</style></defs><line class="cls-1" x1="0.5" y1="17.91" x2="175.92" y2="17.91"/><path d="M134.22,5.14H96.05A2.75,2.75,0,0,0,93.3,7.89V17.94a2.75,2.75,0,0,0,2.75,2.75h1.57a2,2,0,0,0,3.88,0h6.24a2,2,0,0,0,3.88,0h6.24a2,2,0,0,0,3.88,0H128a2,2,0,0,0,3.88,0h2.36A2.75,2.75,0,0,0,137,17.94v-10A2.75,2.75,0,0,0,134.22,5.14ZM96.05,6.23h38.17a1.67,1.67,0,0,1,1.66,1.66v7.77H94.39V7.89A1.67,1.67,0,0,1,96.05,6.23Z" transform="translate(-1.89 -5.12)"/><rect x="94.7" y="3.96" width="3.9" height="3.9" rx="0.35"/><rect x="102.8" y="3.96" width="3.9" height="3.9" rx="0.35"/><rect x="110.9" y="3.96" width="3.9" height="3.9" rx="0.35"/><rect x="118.99" y="3.96" width="3.9" height="3.9" rx="0.35"/><rect x="127.09" y="3.96" width="3.9" height="3.9" rx="0.35"/><path d="M88.76,5.14H50.6a2.75,2.75,0,0,0-2.75,2.75V17.94a2.75,2.75,0,0,0,2.75,2.75h1.56a2,2,0,0,0,3.88,0h6.24a2,2,0,0,0,3.88,0H72.4a2,2,0,0,0,3.88,0h6.24a2,2,0,0,0,3.88,0h2.36a2.75,2.75,0,0,0,2.75-2.75v-10A2.75,2.75,0,0,0,88.76,5.14ZM50.6,6.23H88.76a1.66,1.66,0,0,1,1.66,1.66v7.77H48.94V7.89A1.66,1.66,0,0,1,50.6,6.23Z" transform="translate(-1.89 -5.12)"/><rect x="49.25" y="3.96" width="3.9" height="3.9" rx="0.35"/><rect x="57.34" y="3.96" width="3.9" height="3.9" rx="0.35"/><rect x="65.44" y="3.96" width="3.9" height="3.9" rx="0.35"/><rect x="73.54" y="3.96" width="3.9" height="3.9" rx="0.35"/><rect x="81.63" y="3.96" width="3.9" height="3.9" rx="0.35"/><path d="M43.31,5.14H5.14A2.75,2.75,0,0,0,2.39,7.89V17.94a2.75,2.75,0,0,0,2.75,2.75H6.71a2,2,0,0,0,3.88,0h6.24a2,2,0,0,0,3.88,0H27a2,2,0,0,0,3.88,0h6.24a2,2,0,0,0,3.88,0h2.36a2.75,2.75,0,0,0,2.75-2.75v-10A2.75,2.75,0,0,0,43.31,5.14ZM5.14,6.23H43.31A1.67,1.67,0,0,1,45,7.89v7.77H3.48V7.89A1.67,1.67,0,0,1,5.14,6.23Z" transform="translate(-1.89 -5.12)"/><rect x="3.79" y="3.96" width="3.9" height="3.9" rx="0.35"/><rect x="11.89" y="3.96" width="3.9" height="3.9" rx="0.35"/><rect x="19.98" y="3.96" width="3.9" height="3.9" rx="0.35"/><rect x="28.08" y="3.96" width="3.9" height="3.9" rx="0.35"/><rect x="36.18" y="3.96" width="3.9" height="3.9" rx="0.35"/><path d="M177.54,16.88A13.08,13.08,0,0,0,174,12h.08L173,11.07h0l-.13-.11h0a27,27,0,0,0-6.15-3.63h0l-.13,0-.05,0-.11,0h0l0,0h0l-.71-.28v0c-6.69-2.2-23.64-1.78-24.37-1.76a2.61,2.61,0,0,0-2.49,2.72V17.94a2.61,2.61,0,0,0,2.49,2.72h2.65a2,2,0,0,0,3.9,0h4.32a2,2,0,0,0,3.9,0h4.32a2,2,0,0,0,3.89,0h4.32a2,2,0,0,0,3.9,0h3.1a2.16,2.16,0,0,0,1.83-1.1A2.82,2.82,0,0,0,177.54,16.88ZM141.27,6.2s1.55,0,3.8,0c5.66,0,16.1.24,20.55,1.86V9.86a2.06,2.06,0,0,0,2,2.13h4.86a15.72,15.72,0,0,1,3.38,3.79h-36V7.89A1.6,1.6,0,0,1,141.27,6.2Z" transform="translate(-1.89 -5.12)"/></svg>