<?xml version="1.0" encoding="utf-8"?>
<!-- Generator: Adobe Illustrator 24.3.0, SVG Export Plug-In . SVG Version: 6.00 Build 0)  -->
<svg version="1.1" id="Layer_1" xmlns="http://www.w3.org/2000/svg" xmlns:xlink="http://www.w3.org/1999/xlink" x="0px" y="0px"
	 viewBox="0 0 800 800" style="enable-background:new 0 0 800 800;" xml:space="preserve">
<style type="text/css">
	.st0{fill:#27348B;}
	.st1{fill:#4D5AB5;}
</style>
<polygon class="st0" points="331,195.6 171.8,287.6 12.5,379.5 12.5,195.6 12.5,11.7 171.8,103.7 "/>
<path class="st1" d="M482.5,382.5c-165.1,0-299-187-299-187s133.9-187,299-187s299,187,299,187S647.6,382.5,482.5,382.5z"/>
<path class="st0" d="M311.5,408.5c165.1,0,299,187,299,187s-133.9,187-299,187s-299-187-299-187S146.4,408.5,311.5,408.5z"/>
<polygon class="st1" points="463,595.4 622.2,503.4 781.5,411.5 781.5,595.4 781.5,779.3 622.2,687.3 "/>
</svg>
